{"title":"Warlords of Atlantis (1978)","uid":5854899,"size":734348774,"categoryP":"video","categoryS":"movies","magnet":"?xt=urn:btih:bc5000200589829e5e4dc760930f5edbd5469f6b&amp;dn=Warlords+of+Atlantis+%281978%29&amp;tr=udp%3A%2F%2Ftracker.openbittorrent.com%3A80&amp;tr=udp%3A%2F%2Fopen.demonii.com%3A1337&amp;tr=udp%3A%2F%2Ftracker.coppersurfer.tk%3A6969&amp;tr=udp%3A%2F%2Fexodus.desync.com%3A6969","seeders":6,"leechers":3,"uploader":".BONE.","files":8,"time":1285565208,"description":"Plot: Searching for the lost world of Atlantis, Prof. Aitken, his son Charles and Greg Collinson are betrayed by the crew of their expedition's ship, attracted by the fabulous treasures of Atlantis. The diving bell destroyed, a deep sea monster attacks the boat. They are all dragged to the bottom of the sea where they meet the inhabitants of the lost continent, an advance alien race makes slaves of the ship-wrecked sailors. The aliens want to rule the human world to create a nazi state. Due to his high IQ, they think that Charles may join them. Greg and the team will need the help of Delphine, the daughter of a slave, to escape the city surrounded by evil creatures...\n\nVideo\nID : 0\nFormat : MPEG-4 Visual\nFormat profile : Advanced Simple@L5\nFormat settings, BVOP : Yes\nFormat settings, QPel : No\nFormat settings, GMC : No warppoints\nFormat settings, Matrix : Custom\nCodec ID : XVID\nCodec ID/Hint : XviD\nDuration : 1h 32mn\nBit rate : 924 Kbps\nWidth : 560 pixels\nHeight : 320 pixels\nDisplay aspect ratio : 16:9\nFrame rate : 25.000 fps\nColor space : YUV\nChroma subsampling : 4:2:0\nBit depth : 8 bits\nScan type : Progressive\nBits/(Pixel*Frame) : 0.206\nStream size : 611 MiB (87%)\nWriting library : XviD 1.2.1 (UTC 2008-12-04)\n\nAudio\nID : 1\nFormat : MPEG Audio\nFormat version : Version 1\nFormat profile : Layer 3\nMode : Joint stereo\nMode extension : MS Stereo\nCodec ID : 55\nCodec ID/Hint : MP3\nDuration : 1h 32mn\nBit rate mode : Constant\nBit rate : 128 Kbps\nChannel(s) : 2 channels\nSampling rate : 48.0 KHz\nStream size : 84.6 MiB (12%)\nAlignment : Aligned on interleaves\nInterleave, duration : 80 ms (2.00 video frames)\nInterleave, preload duration : 504 ms\nWriting library : LAME3.98r\nEncoding settings : -m j -V 4 -q 2 -lowpass 17 -b 128\nLanguage : English\n &lt;a href=&quot;\nhttp://www.imdb.com/title/tt0078474/&quot; rel=&quot;nofollow&quot; target=&quot;_NEW&quot;&gt;\nhttp://www.imdb.com/title/tt0078474/&lt;/a&gt;\n","torrent":{"xt":"urn:btih:bc5000200589829e5e4dc760930f5edbd5469f6b","amp;dn":"Warlords+of+Atlantis+%281978%29","amp;tr":["udp%3A%2F%2Ftracker.openbittorrent.com%3A80","udp%3A%2F%2Fopen.demonii.com%3A1337","udp%3A%2F%2Ftracker.coppersurfer.tk%3A6969","udp%3A%2F%2Fexodus.desync.com%3A6969"],"infoHash":"bc5000200589829e5e4dc760930f5edbd5469f6b","infoHashBuffer":{"type":"Buffer","data":[188,80,0,32,5,137,130,158,94,77,199,96,147,15,94,219,213,70,159,107]},"announce":[],"urlList":[]}}